<svg xmlns="http://www.w3.org/2000/svg" width="15" height="15" viewBox="0 0 15 15">
  <path id="Icon_metro-cross" data-name="Icon metro-cross" d="M17.434,13.979h0l-4.55-4.551,4.55-4.551h0a.47.47,0,0,0,0-.663l-2.15-2.15a.47.47,0,0,0-.663,0h0L10.071,6.616,5.52,2.065h0a.47.47,0,0,0-.663,0l-2.15,2.15a.47.47,0,0,0,0,.663h0L7.258,9.428,2.708,13.979h0a.47.47,0,0,0,0,.663l2.15,2.15a.47.47,0,0,0,.663,0h0l4.551-4.551,4.551,4.551h0a.47.47,0,0,0,.663,0l2.15-2.15a.47.47,0,0,0,0-.663Z" transform="translate(-2.571 -1.928)" fill="#303f60"/>
</svg>
